<svg xmlns="http://www.w3.org/2000/svg" width="210" height="300" viewBox="0 0 210 300">
  <defs>
    <linearGradient id="wood" x1="0" y1="0" x2="1" y2="1">
      <stop offset="0" stop-color="#a66d2d"/>
      <stop offset=".45" stop-color="#6f3f1d"/>
      <stop offset="1" stop-color="#402514"/>
    </linearGradient>
  </defs>
  <rect x="5" y="5" width="200" height="290" rx="13" fill="#412515" stroke="#2b170d" stroke-width="6"/>
  <rect x="15" y="15" width="180" height="270" rx="8" fill="url(#wood)" stroke="#d39a45" stroke-width="4"/>
  <rect x="25" y="28" width="160" height="236" rx="8" fill="#3a2214" opacity=".42"/>
  <path d="M30 42c28-12 48-12 74 0s47 12 76 0M30 84c28-12 48-12 74 0s47 12 76 0M30 214c28-12 48-12 74 0s47 12 76 0" stroke="#bd8436" stroke-width="3" opacity=".34" fill="none"/>
  <path d="M20 274h170" stroke="#2b170d" stroke-width="5"/>
  <path d="M38 278l20-14 20 14 20-14 20 14 20-14 20 14" stroke="#1c9dad" stroke-width="4" fill="none"/>
</svg>
