<?xml version="1.0" encoding="UTF-8"?>
<svg xmlns="http://www.w3.org/2000/svg" width="48" height="64" viewBox="0 0 48 64" shape-rendering="crispEdges">
<ellipse cx="24" cy="58" rx="13" ry="4" fill="rgba(40,25,15,.24)"/>
<rect x="14" y="44" width="7" height="11" fill="#5c351d"/>
<rect x="27" y="44" width="7" height="11" fill="#5c351d"/>
<rect x="12" y="54" width="10" height="5" fill="#2b1b12"/>
<rect x="27" y="54" width="10" height="5" fill="#2b1b12"/>
<rect x="15" y="45" width="4" height="7" fill="#8a5a2e"/>
<rect x="29" y="45" width="4" height="7" fill="#8a5a2e"/>
<rect x="33" y="32" width="6" height="15" fill="#5b9ab0"/>
<rect x="34" y="45" width="5" height="5" fill="#d99b62"/>
<rect x="11" y="29" width="5" height="12" fill="#2b708c"/>
<rect x="14" y="25" width="20" height="22" fill="#2a160d"/>
<rect x="16" y="25" width="16" height="22" fill="#f2c96a"/>
<rect x="17" y="28" width="14" height="19" fill="#1d8daf"/>
<rect x="20" y="27" width="8" height="20" fill="#f3d58e"/>
<rect x="18" y="31" width="4" height="12" fill="#0f6f91"/>
<rect x="26" y="31" width="4" height="12" fill="#0f6f91"/>
<rect x="19" y="25" width="10" height="3" fill="#eac45f"/>
<rect x="22" y="31" width="4" height="14" fill="#ffe7a9"/>
<rect x="16" y="47" width="16" height="3" fill="#5c351d"/>
<rect x="13" y="8" width="22" height="20" fill="#2a160d"/>
<rect x="15" y="10" width="18" height="16" fill="#d99b62"/>
<rect x="14" y="7" width="20" height="9" fill="#6b3518"/>
<rect x="13" y="12" width="18" height="5" fill="#8b4b24"/>
<rect x="31" y="17" width="3" height="4" fill="#d99b62"/>
<rect x="27" y="17" width="2" height="3" fill="#15100d"/>
<rect x="28" y="23" width="3" height="2" fill="#8a3f25"/>
<rect x="17" y="29" width="14" height="2" fill="#f9dc81"/>
</svg>
