<svg xmlns="http://www.w3.org/2000/svg" viewBox="0 0 96 96">
  <rect x="8" y="8" width="80" height="80" rx="20" fill="#1f3a2f" stroke="#6d613f" stroke-width="2" />
  <path d="M24 76V43C24 30 38 25 48 14c10 11 24 16 24 29v33" fill="#e3b75f" opacity="0.09" />
  <path d="M24 76V43C24 30 38 25 48 14c10 11 24 16 24 29v33" fill="none" stroke="#e3b75f" stroke-width="2.6" stroke-linecap="round" stroke-linejoin="round" opacity="0.75" />
  <g transform="rotate(45 48 48)">
    <circle cx="35" cy="43" r="13" fill="#e3b75f" />
    <circle cx="35" cy="43" r="5.2" fill="#1f3a2f" />
    <rect x="45" y="39" width="28" height="8.5" rx="3.5" fill="#e3b75f" />
    <path d="M63 43h12v7h-5v6h-8v-9h1Z" fill="#e3b75f" />
  </g>
</svg>
