<?xml version="1.0" encoding="UTF-8"?>
<svg xmlns="http://www.w3.org/2000/svg" width="64" height="64" viewBox="0 0 64 64" shape-rendering="crispEdges">
<ellipse cx="32" cy="51" rx="18" ry="5" fill="rgba(40,25,15,.20)"/>
<polygon points="15,37 7,32 8,26 20,34" fill="#6f3518"/>
<polygon points="16,35 8,31 9,28 20,34" fill="#e47d25"/>
<ellipse cx="32" cy="39" rx="17" ry="10" fill="#6f3518"/>
<ellipse cx="32" cy="37" rx="16" ry="10" fill="#e47d25"/>
<rect x="22" y="44" width="5" height="8" fill="#6f3518"/>
<rect x="37" y="44" width="5" height="8" fill="#6f3518"/>
<rect x="23" y="43" width="4" height="8" fill="#f2a24b"/>
<rect x="36" y="43" width="4" height="8" fill="#f2a24b"/>
<ellipse cx="32" cy="29" rx="12" ry="10" fill="#6f3518"/>
<ellipse cx="32" cy="28" rx="11" ry="9" fill="#f08a2d"/>
<polygon points="23,23 27,14 31,25" fill="#6f3518"/>
<polygon points="33,25 38,14 42,24" fill="#6f3518"/>
<rect x="26" y="26" width="12" height="4" fill="#d76b21"/>
</svg>
