<svg xmlns="http://www.w3.org/2000/svg" viewBox="0 0 640 700" role="img" aria-labelledby="title desc">
  <title id="title">Sprig Cub ship candidate</title>
  <desc id="desc">A plain modular orange teddy garden pet with no equipped accessories.</desc>
  <defs>
    <linearGradient id="body-paint" x1="0" y1="0" x2="0.85" y2="1">
      <stop offset="0" stop-color="#ef9951"/>
      <stop offset="0.62" stop-color="#e6813b"/>
      <stop offset="1" stop-color="#cd6731"/>
    </linearGradient>
    <linearGradient id="blue-paint" x1="0" y1="0" x2="0.8" y2="1">
      <stop offset="0" stop-color="#63acd7"/>
      <stop offset="0.7" stop-color="#4d91c6"/>
      <stop offset="1" stop-color="#376ca4"/>
    </linearGradient>
    <filter id="soft-shadow" x="-20%" y="-30%" width="140%" height="170%">
      <feGaussianBlur stdDeviation="9"/>
    </filter>
  </defs>

  <g id="sprig-cub">
    <ellipse id="ground-shadow" cx="320" cy="662" rx="178" ry="24" fill="#29233b" opacity="0.18" filter="url(#soft-shadow)"/>

    <g id="back-slot">
      <circle id="tail" cx="463" cy="497" r="48" fill="url(#body-paint)" stroke="#29233b" stroke-width="15"/>
      <circle cx="449" cy="480" r="13" fill="#f7bc78" opacity="0.42"/>
    </g>

    <g id="legs">
      <path d="M211 532 C205 569 202 611 217 635 C238 665 298 661 303 626 L305 551 Z"
        fill="url(#body-paint)" stroke="#29233b" stroke-width="15" stroke-linejoin="round"/>
      <path d="M335 551 L337 626 C342 661 402 665 423 635 C438 611 435 569 429 532 Z"
        fill="url(#body-paint)" stroke="#29233b" stroke-width="15" stroke-linejoin="round"/>
      <path d="M205 628 C218 605 282 601 304 629 C304 659 279 673 244 671 C219 670 202 655 205 628 Z"
        fill="#e98740" stroke="#29233b" stroke-width="14" stroke-linejoin="round"/>
      <path d="M336 629 C358 601 422 605 435 628 C438 655 421 670 396 671 C361 673 336 659 336 629 Z"
        fill="#e98740" stroke="#29233b" stroke-width="14" stroke-linejoin="round"/>
      <path d="M226 637 C226 620 239 612 250 630 M262 633 C263 617 276 613 285 628"
        fill="none" stroke="#e8c85f" stroke-width="11" stroke-linecap="round"/>
      <path d="M355 628 C364 613 377 617 378 633 M390 630 C401 612 414 620 414 637"
        fill="none" stroke="#e8c85f" stroke-width="11" stroke-linecap="round"/>
    </g>

    <g id="torso">
      <path d="M199 352 C166 398 165 489 191 552 C213 607 262 628 320 626 C378 628 427 607 449 552 C475 489 474 398 441 352 C407 316 233 316 199 352 Z"
        fill="url(#body-paint)" stroke="#29233b" stroke-width="16" stroke-linejoin="round"/>
      <path d="M223 374 C261 394 379 394 417 374" fill="none" stroke="#f7bc78" stroke-width="12" stroke-linecap="round" opacity="0.48"/>
    </g>

    <g id="base-markings">
      <path d="M241 410 C259 384 291 373 320 373 C349 373 381 384 399 410 C425 448 422 533 390 574 C371 598 347 607 320 607 C293 607 269 598 250 574 C218 533 215 448 241 410 Z"
        fill="#efd49b" stroke="#29233b" stroke-width="14" stroke-linejoin="round"/>
      <path d="M260 425 Q320 397 380 425" fill="none" stroke="#fff1c8" stroke-width="13" stroke-linecap="round" opacity="0.68"/>
      <path d="M320 585 V612" stroke="#29233b" stroke-width="12" stroke-linecap="round"/>
    </g>
    <g id="outfit-slot"/>

    <g id="arms">
      <path d="M218 396 C164 400 129 451 139 509 C146 547 176 573 212 559 C247 546 248 514 223 497 C203 484 191 467 202 446"
        fill="url(#body-paint)" stroke="#29233b" stroke-width="16" stroke-linecap="round" stroke-linejoin="round"/>
      <path d="M422 396 C476 400 511 451 501 509 C494 547 464 573 428 559 C393 546 392 514 417 497 C437 484 449 467 438 446"
        fill="url(#body-paint)" stroke="#29233b" stroke-width="16" stroke-linecap="round" stroke-linejoin="round"/>
      <g id="paw-pads" fill="#e8c85f" stroke="#29233b" stroke-width="6">
        <circle cx="185" cy="522" r="20"/><circle cx="455" cy="522" r="20"/>
        <circle cx="161" cy="497" r="8"/><circle cx="181" cy="488" r="8"/><circle cx="203" cy="495" r="8"/>
        <circle cx="479" cy="497" r="8"/><circle cx="459" cy="488" r="8"/><circle cx="437" cy="495" r="8"/>
      </g>
    </g>

    <g id="head">
      <circle cx="187" cy="206" r="78" fill="url(#body-paint)" stroke="#29233b" stroke-width="17"/>
      <circle cx="453" cy="206" r="78" fill="url(#body-paint)" stroke="#29233b" stroke-width="17"/>
      <circle cx="187" cy="206" r="39" fill="#e8c85f" stroke="#29233b" stroke-width="12"/>
      <circle cx="453" cy="206" r="39" fill="#e8c85f" stroke="#29233b" stroke-width="12"/>
      <path d="M142 214 C145 120 216 88 320 88 C424 88 495 120 498 214 L493 274 C486 340 424 376 320 376 C216 376 154 340 147 274 Z"
        fill="url(#body-paint)" stroke="#29233b" stroke-width="18" stroke-linejoin="round"/>
      <path d="M184 156 C217 117 266 110 309 110" fill="none" stroke="#ffc887" stroke-width="18" stroke-linecap="round" opacity="0.55"/>
      <path d="M240 134 C252 112 271 110 282 126 C291 109 312 108 320 129 C333 108 354 111 358 133 C344 151 320 158 296 151 C275 164 251 157 240 134 Z"
        fill="#e97935" stroke="#29233b" stroke-width="12" stroke-linejoin="round"/>
    </g>

    <g id="face-slot">
      <ellipse cx="245" cy="235" rx="34" ry="45" fill="#fffdf7" stroke="#29233b" stroke-width="13"/>
      <ellipse cx="395" cy="235" rx="34" ry="45" fill="#fffdf7" stroke="#29233b" stroke-width="13"/>
      <ellipse cx="253" cy="242" rx="15" ry="23" fill="#29233b"/>
      <ellipse cx="387" cy="242" rx="15" ry="23" fill="#29233b"/>
      <circle cx="259" cy="233" r="6" fill="#fff"/><circle cx="381" cy="233" r="6" fill="#fff"/>
      <path d="M226 182 Q247 165 268 182 M372 182 Q393 165 414 182" fill="none" stroke="#29233b" stroke-width="12" stroke-linecap="round"/>
      <ellipse cx="320" cy="291" rx="82" ry="62" fill="#e8c85f" stroke="#29233b" stroke-width="14"/>
      <path d="M296 272 C307 256 333 256 344 272 C337 291 303 291 296 272 Z" fill="#29233b"/>
      <path d="M320 285 V302" stroke="#29233b" stroke-width="9" stroke-linecap="round"/>
      <path d="M282 301 Q320 346 358 301 Q354 360 320 364 Q286 360 282 301 Z" fill="#6f384c" stroke="#29233b" stroke-width="10" stroke-linecap="round" stroke-linejoin="round"/>
      <path d="M297 342 Q320 326 343 342 Q334 360 320 361 Q306 360 297 342 Z" fill="#c96f86"/>
      <circle cx="196" cy="294" r="18" fill="#c96f86" opacity="0.6"/>
      <circle cx="444" cy="294" r="18" fill="#c96f86" opacity="0.6"/>
    </g>

    <g id="neck-slot"/>
    <g id="headwear-slot"/>
    <g id="hip-slot"/>
  </g>
</svg>
